<svg role="img" viewBox="0 0 24 24" xmlns="http://www.w3.org/2000/svg" fill="currentColor"><title>Notion</title><path d="M4.459 4.208c.746.606 1.026.56 2.428.466l13.215-.793c.28 0 .047-.28-.046-.326L17.86 2.02c-.466-.373-.746-.466-1.586-.386L3.572 2.754c-.467.047-.56.28-.373.466l1.26.98zm.793 3.72v13.9c0 .746.373 1.026 1.213.98l14.48-.84c.84-.046.933-.56.933-1.166V6.902c0-.606-.233-.933-.746-.886l-15.14.88c-.56.046-.746.326-.746.886l.006-.014zm14.294.653c.093.42 0 .84-.42.887l-.7.14v10.263c-.606.327-1.166.513-1.632.513-.746 0-.933-.233-1.493-.933l-4.571-7.175v6.95l1.446.327s0 .84-1.166.84l-3.22.187c-.093-.187 0-.653.327-.727l.84-.213V9.854L7.825 9.62c-.093-.42.14-1.026.793-1.073l3.453-.233 4.759 7.272v-6.43l-1.213-.14c-.093-.512.28-.886.746-.933l3.22-.2.02.027zm-16.94-9.16L16.74.04c1.213-.093 1.52 0 2.28.56l3.12 2.19c.52.373.7.467.7 1.026v17.117c0 .746-.28 1.213-1.26 1.26L5.199 22.94c-.746.047-1.166-.093-1.586-.606l-2.52-3.267c-.466-.606-.652-.98-.652-1.493V2.834c0-.746.28-1.306 1.166-1.4l.007-.027z"/></svg>